<?xml version="1.0" encoding="UTF-8" standalone="no"?>
<!DOCTYPE svg PUBLIC "-//W3C//DTD SVG 1.1//EN" "http://www.w3.org/Graphics/SVG/1.1/DTD/svg11.dtd">
<svg width="100%" height="100%" viewBox="0 0 219 210" version="1.1" xmlns="http://www.w3.org/2000/svg" xmlns:xlink="http://www.w3.org/1999/xlink" xml:space="preserve" xmlns:serif="http://www.serif.com/" style="fill-rule:evenodd;clip-rule:evenodd;stroke-linejoin:round;stroke-miterlimit:2;">
    <g transform="matrix(1,0,0,1,-1130.91,-120.193)">
        <g transform="matrix(1,0,0,1,16.7378,-1257.63)">
            <g transform="matrix(0.300943,0,0,0.284606,866.971,1107.11)">
                <path d="M1175.18,1250.39C1175.92,1251 1176.7,1251.52 1177.52,1251.96L1177.55,1251.98L1177.57,1251.99L1177.59,1252L1177.62,1252.01C1179.73,1253.13 1182.03,1253.69 1184.33,1253.7L1184.37,1253.7L1184.44,1253.7L1184.51,1253.7L1184.55,1253.7C1186.85,1253.69 1189.16,1253.13 1191.27,1252.01L1191.29,1252L1191.31,1251.99L1191.33,1251.98L1191.37,1251.96C1192.19,1251.52 1192.97,1251 1193.7,1250.39L1536.71,978.659C1543.02,973.661 1544.08,964.482 1539.08,958.173C1534.09,951.864 1524.9,950.799 1518.6,955.797L1184.44,1220.52L850.287,955.797C843.978,950.799 834.799,951.864 829.801,958.173C824.803,964.482 825.867,973.661 832.176,978.659L1175.18,1250.39Z" style="fill:white;stroke:white;stroke-width:2.85px;"/>
                <g transform="matrix(1,0,0,-1,0,2639.04)">
                    <path d="M1175.18,1250.39C1175.92,1251 1176.7,1251.52 1177.52,1251.96L1177.55,1251.98L1177.57,1251.99L1177.59,1252L1177.62,1252.01C1179.73,1253.13 1182.03,1253.69 1184.33,1253.7L1184.37,1253.7L1184.44,1253.7L1184.51,1253.7L1184.55,1253.7C1186.85,1253.69 1189.16,1253.13 1191.27,1252.01L1191.29,1252L1191.31,1251.99L1191.33,1251.98L1191.37,1251.96C1192.19,1251.52 1192.97,1251 1193.7,1250.39L1536.71,978.659C1543.02,973.661 1544.08,964.482 1539.08,958.173C1534.09,951.864 1524.9,950.799 1518.6,955.797L1184.44,1220.52L850.287,955.797C843.978,950.799 834.799,951.864 829.801,958.173C824.803,964.482 825.867,973.661 832.176,978.659L1175.18,1250.39Z" style="fill:white;stroke:white;stroke-width:2.85px;"/>
                </g>
            </g>
            <g transform="matrix(0.32884,0,0,0.343544,825.541,1020.91)">
                <g transform="matrix(0.755329,0,0,0.755329,277.305,323.074)">
                    <path d="M835.181,1414.67L834.507,1302.12C834.507,1302.12 833.725,1133.35 833.725,1133.35C833.725,1133.35 1127.97,1366.94 1127.97,1366.94C1127.97,1366.94 803.932,1595.06 803.932,1595.06C795.559,1601.65 794.113,1613.8 800.704,1622.17C807.295,1630.55 819.444,1631.99 827.817,1625.4L1171.05,1382.17C1175.69,1378.52 1178.4,1372.95 1178.41,1367.04C1178.42,1361.14 1175.73,1355.55 1171.11,1351.88L826.236,1078.11C820.421,1073.49 812.473,1072.62 805.795,1075.86C799.116,1079.11 794.89,1085.89 794.924,1093.32L795.893,1302.31L796.567,1414.9C796.631,1425.56 805.334,1434.16 815.99,1434.09C826.646,1434.03 835.245,1425.33 835.181,1414.67Z" style="fill:white;"/>
                </g>
                <g transform="matrix(-0.755329,0,0,-0.755329,2142.59,2372.35)">
                    <path d="M835.181,1322.18L834.507,1213.48C834.507,1213.48 833.725,1152.62 833.725,1152.62C833.725,1152.62 1127.97,1366.94 1127.97,1366.94C1127.97,1366.94 803.932,1595.06 803.932,1595.06C795.559,1601.65 794.113,1613.8 800.704,1622.17C807.295,1630.55 819.444,1631.99 827.817,1625.4L1171.05,1382.17C1175.69,1378.52 1178.4,1372.95 1178.41,1367.04C1178.42,1361.14 1175.73,1355.55 1171.11,1351.88L826.236,1097.38C820.421,1092.76 812.473,1091.89 805.795,1095.13C799.116,1098.38 794.89,1105.16 794.924,1112.59L795.893,1213.67L796.567,1322.41C796.631,1333.07 805.334,1341.67 815.99,1341.6C826.646,1341.54 835.245,1332.84 835.181,1322.18Z" style="fill:white;"/>
                </g>
            </g>
        </g>
    </g>
</svg>
